<svg id="food_-_icon" data-name="food - icon" xmlns="http://www.w3.org/2000/svg" width="32" height="32" viewBox="0 0 32 32">
  <rect id="Rectangle_28" data-name="Rectangle 28" width="32" height="32" rx="4" fill="#467765"/>
  <path id="Icon_metro-spoon-fork" data-name="Icon metro-spoon-fork" d="M7.09,1.928A3.886,3.886,0,0,0,3.535,6.076,4.07,4.07,0,0,0,6.27,10.113l-.589,9.595a1.1,1.1,0,0,0,1.113,1.183h.593A1.1,1.1,0,0,0,8.5,19.708l-.589-9.595a4.07,4.07,0,0,0,2.735-4.037A3.886,3.886,0,0,0,7.09,1.928Zm11.951,0-.988,5.926h-.741l-.494-5.926h-.494l-.494,5.926H15.09L14.1,1.928h-.494v7.7a.593.593,0,0,0,.593.593h1.543l-.582,9.484a1.1,1.1,0,0,0,1.113,1.183h.593a1.1,1.1,0,0,0,1.113-1.183L17.4,10.224h1.543a.593.593,0,0,0,.593-.593v-7.7Z" transform="translate(4.465 5.072)" fill="#fff"/>
</svg>
