<svg id="calories_icon" data-name="calories icon" xmlns="http://www.w3.org/2000/svg" width="32" height="32" viewBox="0 0 32 32">
  <rect id="Rectangle_29" data-name="Rectangle 29" width="32" height="32" rx="4" fill="#467765"/>
  <path id="Icon_metro-fire" data-name="Icon metro-fire" d="M9.205,20.356a4.694,4.694,0,0,1,.37-5.4,8.6,8.6,0,0,0,1.3-3.007,3.532,3.532,0,0,1,.488,2.709,6.836,6.836,0,0,0,1.49-5.119,8.84,8.84,0,0,1,2.763,10.817c9.941-5.624,2.473-14.04,1.173-14.988.433.948.516,2.553-.36,3.332-1.482-5.62-5.146-6.772-5.146-6.772.433,2.9-1.571,6.067-3.5,8.435A6.264,6.264,0,0,0,7.03,7.3c-.136,2.1-1.741,3.811-2.175,5.914C4.266,16.067,5.3,18.153,9.205,20.356Z" transform="translate(3.299 5.072)" fill="#fff"/>
</svg>
